<?xml version="1.0" encoding="utf-8"?>
<!-- Generator: Adobe Illustrator 24.3.0, SVG Export Plug-In . SVG Version: 6.00 Build 0)  -->
<svg version="1.1" id="Layer_1" xmlns="http://www.w3.org/2000/svg" xmlns:xlink="http://www.w3.org/1999/xlink" x="0px" y="0px"
	 viewBox="0 0 1134 963" style="enable-background:new 0 0 1134 963;" xml:space="preserve">
<style type="text/css">
	.st0{fill:none;stroke:#000000;}
</style>
<path class="st0" d="M99,288c-5.1-0.7-27.2-3.7-45,9c-21.6,15.3-23.7,44.1-27,72C15,470.6-0.4,458,0,511c0.3,43.4,10.5,35.2,45,164
	c21.1,78.7,22,99.3,45,135c19.8,30.9,43.6,53.5,63,72c24.6,23.5,42.5,40.3,72,54c33.6,15.7,61.2,17.6,72,18c20.3,0.7,37.2,1.3,54-9
	c14-8.6,21.3-20.7,36-45c10-16.5,15-24.8,18-36c7.6-28.3-2.6-43.4,9-54c6.6-6,17-7.5,27-9c9.2-1.4,13.8-2,18,0c8.4,4.1,8,13.5,18,36
	c5.1,11.4,5.6,10,9,18c8.3,19.9,6.1,31.5,9,45c4.3,20.5,20.7,46.8,45,54c26.2,7.8,51-9.6,63-18c8.8-6.1,29.1-20.4,36-45
	c3.7-13.4-1.1-13.4,0-54c0.5-19.7,2-32.1,9-45c3.7-6.9,9.2-17.1,18-18c11.6-1.2,21.5,17.6,27,27c5.3,9,34.4,56.8,81,81
	c13,6.8,66.9,32.2,117,9c21.1-9.8,38.3-26.7,54-54c39.8-69.2,31.7-137.8,27-261c-5.5-145.8-0.3-215,9-216c9.9-1.1,19.6,75.4,81,144
	c17.9,20,31.7,29.8,45,27c17-3.6,29.8-27.2,27-46.1c-2.4-16-15.1-23.7-27-34.9c-31.9-30-26.3-55.7-54-117
	c-25.4-56.1-33.4-42.1-54-90c-31.6-73.6-9.4-99.2-45-144c-4.5-5.6-24-21.8-63-54c-11.7-9.7-22-17.9-36-18c-17.4-0.1-30.6,12.6-36,18
	c-38.9,38.6-35.7,114-63,216c-20.5,76.4-36.3,86.3-45,90c-37.2,15.6-100.2-17.7-117-63c-12.6-33.9,9.3-51.5,0-117
	c-3.4-23.9-6-42.3-18-63c-9.9-17.1-19.6-24.4-90-72C437,2.9,429.2-2.1,416.9,0C403.7,2.2,395,10.8,360,63
	c-34.4,51.3-51.7,77.2-54,90c-7.6,42.1,10.4,81.1,27,117c20.6,44.6,35.9,51.8,36,81c0,3.7-0.5,49.2-36,72c-27.1,17.4-57.3,10.4-63,9
	c-24.2-6.1-33.4-20.1-81-72C137.6,303.9,121.7,291.1,99,288z"/>
<path class="st0" d="M108,414c-13.8,2.8-20.9,36.8-18,63c3.4,30.7,20.6,51.8,45,81c5.3,6.3,11.7,13.6,54,54c62.3,59.5,64.4,59,72,72
	c8.8,14.9,16.6,33.6,36,63c2.6,3.9,11.2,16.7,27,27c8.8,5.7,18.5,12,27,9c10-3.6,7.8-16.5,18-36c11.4-21.8,29.1-34,45-45
	c12-8.3,21.3-14.7,36-18c7.2-1.6,20.5-3.5,36,0c24.3,5.5,39.4,21,45,27c18.2,19.2,20.6,37,27,36c7.4-1.1,1.8-24.2,18-45
	c3.4-4.3,14.3-11.9,36-27c16.4-11.4,24.6-17,27-18c26.6-10.5,57.9,9.2,72,18c24.1,15.1,43.4,37.3,81,81c20.3,23.7,31.1,37.7,45,36
	c15.1-1.9,24.2-21.1,27-27c14.1-29.7,5.2-56.6,0-90c-7.1-45.8,3.4-35,0-126c-1.2-32-3.1-50.3-4.9-62.9c-2.2-15.4-2.8-17.8-4.2-28.1
	c-1.1-8.3-3.5-29.7,0-80.1c3.5-50.6,8.4-64.6,0-90c-1.6-4.9-9.1-27.3-18-27c-8.3,0.3-12.8,20.4-18,36c-19.8,59.8-31.5,95.3-54,117
	c-34.8,33.6-89.3,28.2-99,27c-37-4.5-61.6-24.1-99-54c-25.2-20.1-37.8-30.2-45-45c-16.1-33,2.4-49.8-9-108c-6.7-34-17.6-51.7-27-63
	c-7.4-8.9-25.7-30.9-45-27c-14.3,2.9-22.7,18.8-27,27c-4.7,8.9-7.6,18.9-9,36c-1.3,16.6-3.3,45.2,9,81c11.2,32.7,20,29.7,27,54
	c9.7,33.9-0.4,64.2-9,90c-12.6,37.8-25.1,75.1-63,99c-55.6,35.1-118.7,11.8-126,9c-27-10.4-44.1-26.9-63-45
	C132.4,449.3,123.3,410.9,108,414z"/>
<path class="st0" d="M-117,252"/>
</svg>
