<?xml version="1.0" encoding="utf-8"?>
<!-- Generator: Adobe Illustrator 24.3.0, SVG Export Plug-In . SVG Version: 6.00 Build 0)  -->
<svg version="1.1" id="Layer_1" xmlns="http://www.w3.org/2000/svg" xmlns:xlink="http://www.w3.org/1999/xlink" x="0px" y="0px"
	 viewBox="0 0 864 288" style="enable-background:new 0 0 864 288;" xml:space="preserve">
    <g>
        <path
          d="M16,202l93-150.9C109,51.1-22.3,97.7,16,202z"
          fill="#000000"
        />
        <path
          d="M24.9,216.9c0,0,135.8-187.5,182.1-180.7C205.2,97.7,181.2,341.9,24.9,216.9z"
          fill="#000000"
        />
      </g>
      <g>
        <path
          d="M313.1,94.8l-16.8,5.2c-2-10.6-8.6-17.5-19.7-17.5c-12.8,0-19.6,11-19.6,22.4c0,14.6,8.2,25,20.8,25
		c10.3,0,16.8-7.8,19.2-16.1l15.8,3.1c-3.6,16.5-14.8,28.1-34.8,28.1c-22.8,0-37.3-16.4-37.3-38.2c0-24.4,14.2-39.3,37.8-39.3
		C294.2,67.5,309.8,74.8,313.1,94.8z"
          fill="#000000"
        />
        <path
          d="M349.8,109.3c0-4.9-2.8-7.5-9.8-7.5c-5.4,0-9.2,3.5-11.5,6.6l-8.7-8.5c1.5-4.4,9.7-10.7,20.1-10.7
		c15.5,0,23.7,5.9,23.7,23.5v18.7c0,2.6,2.4,4.8,6.1,4.8l-2,8.6c-6.6,0-11.2-2.8-12.9-6.1c-2.6,3.5-7.3,6.5-16.3,6.5
		c-15.4,0-21.5-7-21.5-17.3C316.9,108.5,343.8,112.3,349.8,109.3z M349.8,127.1v-7.7c-7.8,1.8-18.6-0.2-18.6,8.4
		c0,2.3,1.5,4.7,8.4,4.7C344,132.5,348.1,131.1,349.8,127.1z"
          fill="#000000"
        />
        <path
          d="M373,144V67.4h14.4V144H373z"
          fill="#000000"
        />
        <path
          d="M430.4,144V69.4h24.8c25.6,0,42.5,14.9,42.5,41.3c0,23.1-16.9,33.3-37.1,33.3H430.4z M446.1,130h13.3
		c13.2,0,22.5-5.5,22.5-20.8c0-17-13.8-25.6-28.5-25.6h-7.3V130z"
          fill="#000000"
        />
        <path
          d="M534.5,109.3c0-4.9-2.8-7.5-9.8-7.5c-5.4,0-9.2,3.5-11.5,6.6l-8.7-8.5c1.5-4.4,9.7-10.7,20.1-10.7
		c15.5,0,23.7,5.9,23.7,23.5v18.7c0,2.6,2.4,4.8,6.1,4.8l-2,8.6c-6.6,0-11.2-2.8-12.9-6.1c-2.6,3.5-7.3,6.5-16.3,6.5
		c-15.4,0-21.5-7-21.5-17.3C501.6,108.5,528.4,112.3,534.5,109.3z M534.5,127.1v-7.7c-7.8,1.8-18.6-0.2-18.6,8.4
		c0,2.3,1.5,4.7,8.4,4.7C528.6,132.5,532.7,131.1,534.5,127.1z"
          fill="#000000"
        />
        <path
          d="M576.5,123l12.8-32.5h15.1l-20.9,52.4c-5.2,13.1-14.6,21.1-23.9,21.1c-4.8,0-10-1.9-12.5-4.8l6.1-13.7
		c2.2,2.9,4.6,4.2,7,4.2c3.9,0,7.1-3.4,9-8.3l-20.4-51h15.7L576.5,123z"
          fill="#000000"
        />
        <path
          d="M705.5,69.4V144h-16v-34.9h-31.6V144h-16V69.4h16v26.3h31.6V69.4H705.5z"
          fill="#000000"
        />
        <path
          d="M746.2,109.3c0-4.9-2.8-7.5-9.8-7.5c-5.4,0-9.2,3.5-11.5,6.6l-8.7-8.5c1.5-4.4,9.7-10.7,20.1-10.7
		c15.5,0,23.7,5.9,23.7,23.5v18.7c0,2.6,2.4,4.8,6.1,4.8l-2,8.6c-6.6,0-11.2-2.8-12.9-6.1c-2.6,3.5-7.3,6.5-16.3,6.5
		c-15.4,0-21.5-7-21.5-17.3C713.4,108.5,740.2,112.3,746.2,109.3z M746.2,127.1v-7.7c-7.8,1.8-18.6-0.2-18.6,8.4
		c0,2.3,1.5,4.7,8.4,4.7C740.4,132.5,744.5,131.1,746.2,127.1z"
          fill="#000000"
        />
        <path
          d="M769.4,91.3l6.4-1.4c2.1,1.8,3.7,5.5,4.9,7.3c2.3-3.6,7.5-7.9,16.6-7.9c9,0,14.8,4.8,16.9,9.2c1.7-4.4,10-9.2,19.5-9.2
		c11.8,0,21.2,8,21.2,22.5V144h-13.6v-30.4c0-6.6-4.8-11.1-11.1-11.1c-3.6,0-9.3,2.1-11,5.7V144h-13.6v-30.4
		c0-6.6-4.3-11.1-10.5-11.1c-5.3,0-12,3.6-12,7.4V144h-13.8V91.3z"
          fill="#000000"
        />
      </g>
      <g
        fill="#000000"
      >
        <path
          d="M266.4,206.5l-4.8,3.4c-1-1.8-3-4.2-9.3-4.2c-3.6,0-7,1.5-7,4.2c0,7.1,22.3,2,22.3,14.5c0,8.1-8.3,10.2-14.8,10.2
		c-7.5,0-13.2-2.8-15.3-6.9l5.1-2.9c1.3,2.1,4.3,4.7,9.9,4.7c4.4,0,9.5-2,9.5-5.1c0-4.2-8.8-4-13.8-5.7c-5-1.7-8.5-3.5-8.5-8.8
		c0-6.4,5-9.2,12.9-9.2C259.6,200.8,264.7,203.1,266.4,206.5z"
        />
        <path
          d="M277.6,193c0,2.2-1.7,3.7-3.8,3.7c-2.2,0-3.7-1.5-3.7-3.7s1.5-3.8,3.7-3.8C275.9,189.2,277.6,190.8,277.6,193z M270.7,234
		v-32.5h6.3V234H270.7z"
        />
        <path
          d="M282.4,234v-32.3l2.1-0.5c1.5,1.2,2.6,2.6,3.5,4.4c2.2-3,7.6-4.9,11.7-4.9c7.9,0,14.8,4.9,14.8,13.4V234h-5.9v-18.6
		c0-5.4-4.6-9.3-9.7-9.3c-4.2,0-10.6,3.4-10.6,6.8V234H282.4z"
        />
        <path
          d="M334,229.3c4.4,0,9.3-3.2,10.2-6.8l5.6,1.2c-1.7,6.4-8.6,10.9-15.8,10.9c-9.8,0-16.4-7.1-16.4-16.7
		c0-10.5,6-17.2,17.1-17.2c8.2,0,14.1,4.8,15,10.5l-5.7,2c-1.5-5-5.2-7.2-10.6-7.2c-6.3,0-10,4.9-10,11.4
		C323.4,223.8,327.9,229.3,334,229.3z"
        />
        <path
          d="M380.9,211.9c0.2,0.8,0.4,2.1,0.4,3.3c0,3.4-2.4,4.4-5.3,4.4h-20.3c0.3,5.8,5.6,9.8,10.6,9.8c3.9,0,7.4-2,9-4.9l4.4,2.8
		c-2.8,4.2-6.8,7.5-13.6,7.5c-8.7,0-15.9-7.4-15.9-17.4c0-9.5,6.5-16.5,15.9-16.5C373.9,200.7,379,205.3,380.9,211.9z M355.9,214.8
		h20c-0.8-4.8-4.5-8.8-9.9-8.8C360.8,206,356.5,209.8,355.9,214.8z"
        />
        <path
          d="M431,187.3v30.5c0,11.2-5.1,17.8-15.7,17.8c-6.4,0-12.5-4.6-13.4-9.4l6.4-2.3c0.6,3,4.5,4.9,7.3,4.9c6.7,0,8.1-4.9,8.1-12
		v-29.5H431z"
        />
        <path
          d="M468.9,201.5v32.3l-2.2,0.5c-1.5-1.2-2.6-2.6-3.5-4.4c-2.2,3-7.4,4.9-11.5,4.9c-8,0-14.5-4.9-14.5-13.4v-19.9h5.9v18.6
		c0,5.4,4.4,9.3,9.3,9.3c4.2,0,10.4-3.4,10.4-6.8v-21.1H468.9z"
        />
        <path
          d="M474.4,234v-32.3l2.1-0.5c1.5,1.2,2.6,2.6,3.5,4.4c2.2-3,7.6-4.9,11.7-4.9c7.9,0,14.8,4.9,14.8,13.4V234h-5.9v-18.6
		c0-5.4-4.6-9.3-9.7-9.3c-4.2,0-10.6,3.4-10.6,6.8V234H474.4z"
        />
        <path
          d="M540.4,211.9c0.2,0.8,0.4,2.1,0.4,3.3c0,3.4-2.4,4.4-5.3,4.4h-20.3c0.3,5.8,5.6,9.8,10.6,9.8c3.9,0,7.4-2,9-4.9l4.4,2.8
		c-2.8,4.2-6.8,7.5-13.6,7.5c-8.7,0-15.9-7.4-15.9-17.4c0-9.5,6.5-16.5,15.9-16.5C533.4,200.7,538.4,205.3,540.4,211.9z
		 M515.4,214.8h20c-0.8-4.8-4.5-8.8-9.9-8.8C520.3,206,516,209.8,515.4,214.8z"
        />
        <path d="M566.3,234v-39.1l-4.9-0.4l-0.4-2.3l11.1-5.5l1.3,0.3v47H566.3z" />
        <path
          d="M606.9,213.9h6.4l-0.7,5.9h-5.7V234h-6.7v-14.2h-23c0-4.2,0.2-5.6,0.7-7c1.9-5.1,6.1-8.6,9.9-12.7c2.8-3,4.8-5.1,4.8-12.7
		h6.8c-0.1,6.7-1.3,8.8-3.7,12.2c-5.1,7.2-10.5,9.9-11.5,14.3h16.1v-14.6l6.7-4.5V213.9z"
        />
        <path
          d="M621.6,230.1c0,6-4.5,10.4-7.3,11.1l-1-1.9c1.4-0.9,3-2.8,3.4-4.4c-2.8-0.4-4-1.9-4-4.7c0-2.7,1.5-4.5,4.5-4.5
		C620.2,225.7,621.6,227.7,621.6,230.1z"
        />
        <path
          d="M646.9,227.6c10.6-5.1,28-14.3,28-26.9c0-5.3-5.1-9.4-10.4-9.4c-4.5,0-10.4,2.2-10.4,7.2c0,1.7,0.5,3.1,1.6,4.4l-4.5,3.4
		c-1.9-1.6-3.2-4.3-3.2-7.4c0-8.7,7.1-12.6,16.6-12.6c10.4,0,16.4,5.9,16.4,14.7c0,13.8-13.8,22.1-23.3,26.3l0.4,0.9h24.3l-0.7,5.9
		H648L646.9,227.6z"
        />
        <path
          d="M722.4,210.3c0,12.7-6.3,24.3-19.2,24.3c-12.7,0-19.1-11.6-19.1-24.3c0-13.1,6.4-24.3,19.1-24.3
		C716.1,186.1,722.4,197.3,722.4,210.3z M691.7,210.3c0,8.1,0.9,18.8,11.6,18.8c10.6,0,11.6-10.7,11.6-18.8c0-8-1-18.8-11.6-18.8
		C692.6,191.5,691.7,202.3,691.7,210.3z"
        />
        <path
          d="M762.7,210.3c0,12.7-6.3,24.3-19.2,24.3c-12.7,0-19.1-11.6-19.1-24.3c0-13.1,6.4-24.3,19.1-24.3
		C756.4,186.1,762.7,197.3,762.7,210.3z M731.9,210.3c0,8.1,0.9,18.8,11.6,18.8c10.6,0,11.6-10.7,11.6-18.8c0-8-1-18.8-11.6-18.8
		C732.8,191.5,731.9,202.3,731.9,210.3z"
        />
        <path d="M768.1,234v-39.1l-4.9-0.4l-0.4-2.3l11.1-5.5l1.3,0.3v47H768.1z" />
      </g>
</svg>